<svg xmlns="http://www.w3.org/2000/svg" viewBox="0 0 500 500"><defs><style>.cls-1,.cls-6{opacity:0.31;}.cls-2,.cls-4{fill:none;}.cls-2,.cls-7,.cls-8{stroke:#fff;}.cls-2,.cls-4,.cls-5,.cls-7,.cls-8{stroke-miterlimit:10;}.cls-2{stroke-width:3px;}.cls-3,.cls-8{fill:#94002e;}.cls-4,.cls-5{stroke:#000;}.cls-7{fill:gray;}.cls-8{opacity:0.71;}</style></defs><g id="Letters"><g class="cls-1"><polygon points="328 162 328 185 273 185 273 289 244 289 244 185 192 185 192 173 273 173 273 162 328 162"/></g><polygon class="cls-2" points="321.5 159.5 321.5 182.5 266.5 182.5 266.5 286.5 237.5 286.5 237.5 182.5 185.5 182.5 185.5 170.5 266.5 170.5 266.5 159.5 321.5 159.5"/><polygon points="321.5 159.5 321.5 182.5 266.5 182.5 266.5 286.5 237.5 286.5 237.5 182.5 185.5 182.5 185.5 170.5 266.5 170.5 266.5 159.5 321.5 159.5"/><g class="cls-1"><path d="M274,158q0,8.55-.08,17.1L188.38,175l.21-52,22.18,0-.15,38.07,37,0L248,158"/></g><g class="cls-1"><path d="M248.32,158l.41-102-56.86-.09.1-22.69,139.64.22-.08,21.66L273.67,55l-.42,102.88"/></g><path class="cls-2" d="M185.5,166.5v-43h21v34h35V53.5h-57v-22h140v21h-58V169.91h-81Z"/><path class="cls-3" d="M185.5,166.5v-43h21v34h35V53.5h-57v-22h140v21h-58V169.91h-81Z"/><line class="cls-4" x1="174" y1="287.5" x2="328" y2="287.5"/><circle class="cls-5" cx="174.5" cy="287.5" r="1"/><circle class="cls-5" cx="328.5" cy="287.5" r="1"/></g><g id="Pen"><path class="cls-6" d="M296.88,480H219.05l-10.24-83.31L252.5,297q.69,39.72,1.37,79.42h9.55V297l43.7,99.66Z"/><path class="cls-7" d="M290.05,477.27H212.22L202,394q21.86-49.83,43.69-99.66.69,39.72,1.37,79.42h9.56V294.3L300.29,394Z"/><path class="cls-8" d="M202,394q21.86-49.85,43.69-99.68.69,39.6,1.37,79.2h9.56V294.3l43.69,98.31h-6.83q-13-28.67-25.94-57.34v45.05h-31.4V335.27l-26,58.71Z"/></g></svg>